<svg width="33" height="44" version="1.1" viewBox="0 0 35 45" xmlns="http://www.w3.org/2000/svg"><path d="m30.658 3.217h-26.335c-2.367 0-4.286 1.87-4.286 4.179v19.847c0 2.308 1.919 4.179 4.286 4.179h7.8104l5.337 13.58 5.377-13.58h7.8104c2.366 0 4.285-1.87 4.285-4.179v-19.847c0-2.308-1.919-4.179-4.285-4.179" fill="red"/><g transform="matrix(1.0714 0 0 -1.0714 -233.22 146.78)" opacity=".15"><path d="m246.3 134h-24.588c-2.209 0-4-1.746-4-3.9v-18.525c0-2.154 1.791-3.9 4-3.9h7.2899l4.982-12.675 5.018 12.675h7.2977c2.209 0 4 1.746 4 3.9v18.525c0 2.154-1.791 3.9-4 3.9m0-1c1.654 0 3-1.301 3-2.9v-18.525c0-1.599-1.346-2.9-3-2.9h-7.9777l-0.25-0.632-4.084-10.318-4.055 10.316-0.249 0.634h-7.9719c-1.654 0-3 1.301-3 2.9v18.525c0 1.599 1.346 2.9 3 2.9h24.588" fill="#231f20"/></g></svg>
